<svg xmlns="http://www.w3.org/2000/svg" version="1.1" xmlns:xlink="http://www.w3.org/1999/xlink" xmlns:svgjs="http://svgjs.dev/svgjs" width="1000" height="1000" viewBox="0 0 1000 1000"><rect width="1000" height="1000" fill="#ffffff"></rect><g transform="matrix(0.7,0,0,0.7,149.57575757575756,252.30276945636862)"><svg viewBox="0 0 396 280" data-background-color="#ffffff" preserveAspectRatio="xMidYMid meet" height="707" width="1000" xmlns="http://www.w3.org/2000/svg" xmlns:xlink="http://www.w3.org/1999/xlink"><g id="tight-bounds" transform="matrix(1,0,0,1,0.2400000000000091,0.13987583798098058)"><svg viewBox="0 0 395.52 279.72" height="279.72" width="395.52"><g><svg viewBox="0 0 395.52 279.72" height="279.72" width="395.52"><g><svg viewBox="0 0 395.52 279.72" height="279.72" width="395.52"><g><svg viewBox="0 0 395.52 279.72" height="279.72" width="395.52"><g><svg viewBox="0 0 395.52 279.72" height="279.72" width="395.52"><g transform="matrix(1,0,0,1,131.83260304140546,73.92936372216631)"><svg viewBox="0 0 131.85479391718906 131.8612725556674" height="131.8612725556674" width="131.85479391718906"><g><svg xmlns="http://www.w3.org/2000/svg" xmlns:xlink="http://www.w3.org/1999/xlink" version="1.1" x="0" y="0" viewBox="0.3583327531814575 0.3587183356285095 89.28327178955078 89.28765869140625" enable-background="new 0 0 90 90" xml:space="preserve" height="131.8612725556674" width="131.85479391718906" class="icon-o-0" data-fill-palette-color="accent" id="o-0"><polygon points="57.928,58.169 57.875,76.027 45.397,63.548 45.397,45.639 " fill="#096a2e" data-fill-palette-color="accent"></polygon><polygon points="76.027,57.875 58.475,57.927 45.826,45.279 63.432,45.279 " fill="#096a2e" data-fill-palette-color="accent"></polygon><polygon points="76.027,32.125 63.432,44.721 45.707,44.721 58.355,32.073 " fill="#096a2e" data-fill-palette-color="accent"></polygon><polygon points="44.838,45.59 44.838,63.314 32.125,76.027 32.074,58.355 " fill="#096a2e" data-fill-palette-color="accent"></polygon><polygon points="57.928,31.712 45.397,44.243 45.397,26.452 57.875,13.974 " fill="#096a2e" data-fill-palette-color="accent"></polygon><polygon points="44.838,26.687 44.838,44.291 32.074,31.526 32.125,13.974 " fill="#096a2e" data-fill-palette-color="accent"></polygon><polygon points="44.479,44.721 26.569,44.721 13.974,32.125 31.832,32.073 " fill="#096a2e" data-fill-palette-color="accent"></polygon><polygon points="44.36,45.279 31.712,57.927 13.974,57.875 26.569,45.279 " fill="#096a2e" data-fill-palette-color="accent"></polygon><rect x="58.48" y="58.48" width="18.049" height="18.049" fill="#096a2e" data-fill-palette-color="accent"></rect><polygon points="76.527,13.474 76.527,31.516 58.914,31.516 58.912,31.518 58.484,31.516 58.484,13.474 " fill="#096a2e" data-fill-palette-color="accent"></polygon><polygon points="31.518,30.971 31.516,31.516 13.474,31.516 13.474,13.474 31.516,13.474 31.516,30.968 " fill="#096a2e" data-fill-palette-color="accent"></polygon><rect x="13.471" y="58.48" width="18.05" height="18.049" fill="#096a2e" data-fill-palette-color="accent"></rect><rect x="67.864" y="35.981" transform="matrix(0.7071 -0.7071 0.7071 0.7071 -9.3022 67.5465)" width="18.042" height="18.042" fill="#096a2e" data-fill-palette-color="accent"></rect><rect x="35.979" y="4.094" transform="matrix(0.7071 -0.7071 0.7071 0.7071 3.9068 35.6621)" width="18.042" height="18.042" fill="#096a2e" data-fill-palette-color="accent"></rect><rect x="4.095" y="35.98" transform="matrix(0.7071 -0.7071 0.7071 0.7071 -27.9787 22.4536)" width="18.041" height="18.041" fill="#096a2e" data-fill-palette-color="accent"></rect><rect x="35.98" y="67.865" transform="matrix(0.7071 -0.7071 0.7071 0.7071 -41.1877 54.3437)" width="18.04" height="18.041" fill="#096a2e" data-fill-palette-color="accent"></rect></svg></g></svg></g><path d="M95.418 87.97V87.97L94.602 90.825C85.743 88.914 78.04 87.582 71.494 86.827V86.827C73.066 88.357 75.38 90.261 78.437 92.539 81.486 94.821 83.449 96.341 84.328 97.099V97.099C84.308 97.149 84.284 97.229 84.256 97.341 84.224 97.458 84.196 97.551 84.169 97.62V97.62C84.036 97.964 83.782 98.505 83.409 99.245 83.034 99.991 82.803 100.474 82.719 100.693V100.693C82.009 100.446 79.432 100.155 74.989 99.82 70.536 99.489 67.708 99.227 66.503 99.033V99.033C70.253 100.99 76.732 105.451 85.94 112.415V112.415L84.852 114.582C82.345 113.221 78.52 110.779 73.379 107.254 68.232 103.727 64.157 101.244 61.155 99.807V99.807C61.275 99.35 61.387 98.987 61.491 98.718V98.718C61.583 98.481 62.026 97.624 62.821 96.149V96.149C63.002 95.831 64.289 95.766 66.683 95.953 69.068 96.144 71.67 96.409 74.487 96.746 77.302 97.09 78.974 97.267 79.502 97.277V97.277C78.094 95.955 75.701 94.089 72.321 91.678 68.941 89.267 66.82 87.672 65.957 86.892V86.892C66.133 86.514 66.716 85.334 67.707 83.353V83.353C70.387 83.673 73.259 84.085 76.321 84.589 79.383 85.093 82.847 85.699 86.715 86.408 90.588 87.118 93.489 87.639 95.418 87.97ZM93.818 55.951V55.951L95.228 54.688 95.532 54.92C96.932 55.991 99.369 57.716 102.842 60.095 106.316 62.473 109.013 64.283 110.933 65.524V65.524C110.784 66.061 110.568 66.515 110.282 66.888V66.888C110.03 67.218 109.696 67.549 109.281 67.882V67.882L108.285 67.512C108.02 69.403 107.432 70.945 106.519 72.138V72.138C105.843 73.022 105.049 73.63 104.136 73.962 103.229 74.298 102.338 74.409 101.462 74.296 100.586 74.184 99.621 73.884 98.566 73.398 97.512 72.921 96.601 72.43 95.83 71.926 95.059 71.411 94.22 70.808 93.315 70.115V70.115C90.679 68.099 88.385 66.082 86.433 64.066V64.066L87.808 62.914C88.594 63.288 89.389 63.782 90.193 64.397V64.397C90.646 64.743 91.409 65.369 92.481 66.274 93.553 67.178 94.379 67.853 94.96 68.297V68.297C95.966 69.067 96.871 69.683 97.674 70.145 98.478 70.617 99.323 70.985 100.21 71.249 101.097 71.523 101.931 71.537 102.712 71.289 103.49 71.032 104.187 70.502 104.803 69.698V69.698C105.495 68.793 106.04 67.656 106.436 66.288V66.288C105.703 65.668 103.782 64.135 100.673 61.689 97.564 59.243 95.279 57.33 93.818 55.951ZM122.644 35.655V35.655L121.23 36.624C119.904 35.828 118.732 35.834 117.713 36.643V36.643C117.267 36.998 116.877 37.471 116.542 38.062 116.205 38.663 115.96 39.2 115.806 39.674 115.647 40.143 115.465 40.792 115.26 41.623V41.623C115.485 41.907 116.214 42.835 117.446 44.407 118.678 45.98 120.067 47.707 121.612 49.588 123.162 51.474 124.014 52.471 124.169 52.579V52.579C124.469 53.334 124.353 53.922 123.823 54.343V54.343C123.461 54.631 122.995 54.761 122.425 54.734 121.856 54.707 121.363 54.512 120.946 54.15V54.15C116.15 47.325 112.58 42.125 110.237 38.549V38.549L111.851 37.768 113.566 39.732C114.054 37.426 114.805 35.871 115.818 35.066V35.066C116.937 34.178 118.079 33.686 119.244 33.59 120.406 33.49 121.375 33.928 122.15 34.904V34.904C122.392 35.209 122.557 35.459 122.644 35.655ZM137.689 24.576V24.576L136.139 23.105C136.46 22.213 137.004 21.363 137.772 20.556 138.541 19.749 139.383 19.129 140.298 18.698V18.698C144.258 16.83 147.854 19.322 151.086 26.175V26.175C151.526 27.109 152.127 28.516 152.887 30.396 153.648 32.276 154.244 33.673 154.676 34.589V34.589C154.831 35.405 154.639 35.941 154.099 36.195V36.195C153.675 36.396 153.186 36.366 152.634 36.108 152.083 35.849 151.685 35.462 151.442 34.947V34.947C151.365 34.783 151.323 34.662 151.315 34.584V34.584C150.523 36.677 149.306 38.111 147.663 38.886V38.886C146.419 39.473 145.121 39.533 143.767 39.067 142.413 38.601 141.431 37.722 140.822 36.43V36.43C139.793 34.247 139.715 31.875 140.59 29.312 141.458 26.753 142.972 24.964 145.131 23.946V23.946C145.228 23.9 145.325 23.862 145.421 23.831 145.524 23.798 145.645 23.763 145.784 23.727 145.92 23.685 146.024 23.647 146.097 23.613V23.613C144.616 20.961 142.878 20.105 140.883 21.046V21.046C139.713 21.598 138.648 22.775 137.689 24.576ZM150.234 32.125V32.125C149.507 30.459 148.945 29.204 148.548 28.361V28.361C148.213 27.652 147.724 26.678 147.081 25.44V25.44L146.808 25.568C145.149 26.373 143.923 27.711 143.13 29.582 142.328 31.45 142.336 33.251 143.154 34.986V34.986C143.509 35.738 144.021 36.226 144.691 36.452 145.357 36.686 146.018 36.649 146.673 36.34V36.34C147.71 35.851 148.897 34.446 150.234 32.125ZM172.239 30.663V30.663L170.182 31.505 163.71 1.457C164.348 0.953 165.256 0.468 166.434 0V0C166.524 0.59 166.694 1.507 166.942 2.75V2.75C167.491 5.498 168.136 8.199 168.878 10.854V10.854C169.958 9.928 171.185 9.327 172.559 9.053V9.053C173.986 8.768 175.263 8.862 176.389 9.334 177.517 9.813 178.438 10.59 179.152 11.664 179.872 12.737 180.454 13.852 180.896 15.008 181.338 16.157 181.698 17.432 181.978 18.832V18.832C182.283 20.358 182.339 21.875 182.148 23.383 181.964 24.889 181.398 26.284 180.451 27.567 179.498 28.858 178.197 29.669 176.547 29.998V29.998C175.12 30.283 173.621 30.118 172.048 29.502V29.502C172.073 29.763 172.137 30.151 172.239 30.663ZM169.506 14.616V14.616L171.852 26.926C172.095 27.356 172.644 27.622 173.498 27.725 174.348 27.836 175.246 27.797 176.193 27.608V27.608C177.08 27.43 177.789 27.111 178.319 26.65 178.849 26.188 179.2 25.602 179.373 24.891 179.552 24.178 179.626 23.456 179.596 22.723 179.573 21.989 179.469 21.162 179.285 20.242V20.242C179.098 19.302 178.861 18.392 178.576 17.512 178.296 16.624 177.894 15.672 177.37 14.656 176.852 13.638 176.182 12.866 175.359 12.34 174.543 11.812 173.625 11.65 172.606 11.854V11.854C171.869 12.001 171.212 12.323 170.635 12.821 170.066 13.325 169.689 13.923 169.506 14.616ZM200.908 10.253V10.253L200.239 8.223C200.944 7.589 201.826 7.098 202.885 6.751 203.943 6.404 204.978 6.257 205.989 6.31V6.31C210.361 6.54 212.349 10.437 211.951 18.003V18.003C211.897 19.034 211.76 20.558 211.54 22.574 211.32 24.59 211.183 26.103 211.13 27.114V27.114C210.88 27.907 210.457 28.288 209.861 28.256V28.256C209.393 28.232 208.977 27.975 208.613 27.486 208.249 26.997 208.082 26.468 208.112 25.898V25.898C208.122 25.718 208.142 25.591 208.172 25.519V25.519C206.484 26.988 204.732 27.675 202.918 27.579V27.579C201.545 27.507 200.373 26.945 199.401 25.894 198.429 24.842 197.981 23.604 198.056 22.178V22.178C198.182 19.767 199.237 17.641 201.221 15.798 203.198 13.955 205.378 13.096 207.761 13.221V13.221C207.868 13.227 207.972 13.239 208.071 13.257 208.178 13.276 208.301 13.303 208.44 13.337 208.579 13.365 208.689 13.381 208.77 13.385V13.385C208.721 10.348 207.596 8.771 205.393 8.655V8.655C204.101 8.587 202.606 9.12 200.908 10.253ZM208.384 22.841V22.841C208.533 21.029 208.631 19.658 208.68 18.728V18.728C208.722 17.944 208.752 16.855 208.772 15.459V15.459L208.47 15.444C206.628 15.367 204.915 15.965 203.33 17.238 201.74 18.504 200.894 20.094 200.794 22.009V22.009C200.75 22.839 200.97 23.512 201.453 24.028 201.929 24.55 202.529 24.83 203.252 24.868V24.868C204.397 24.928 206.107 24.252 208.384 22.841ZM234.473 3.728V3.728L236.271 4.767C236.041 5.804 235.605 7.448 234.966 9.699 234.321 11.942 233.897 13.491 233.694 14.347V14.347C235.463 13.342 237.29 13.125 239.177 13.696V13.696C240.864 14.207 242.143 15.246 243.014 16.813 243.88 18.371 244.012 20.145 243.409 22.134V22.134L239.697 34.387C239.332 34.437 238.899 34.387 238.398 34.235V34.235C237.853 34.07 237.374 33.869 236.963 33.632V33.632C237.023 33.433 237.121 33.134 237.256 32.733 237.393 32.326 237.492 32.024 237.552 31.825V31.825C237.846 30.856 238.314 29.173 238.956 26.775 239.596 24.384 240.157 22.393 240.639 20.801V20.801C240.959 18.404 240.153 16.913 238.222 16.328V16.328C237.375 16.072 236.471 16.05 235.51 16.263 234.555 16.478 233.798 16.837 233.239 17.341V17.341C232.835 18.928 232.169 21.3 231.24 24.459 230.31 27.624 229.66 29.907 229.292 31.308V31.308C228.664 31.23 228.138 31.127 227.715 30.999V30.999C227.092 30.81 226.595 30.579 226.222 30.305V30.305C226.637 29.099 227.242 27.181 228.039 24.55V24.55C228.393 23.383 229.028 21.239 229.945 18.119 230.871 14.995 231.68 12.311 232.373 10.069 233.06 7.826 233.76 5.712 234.473 3.728ZM256.388 37.195V37.195C256.998 37.532 257.368 38.084 257.496 38.851 257.618 39.615 257.491 40.338 257.116 41.019V41.019C256.84 41.518 256.499 41.858 256.093 42.04 255.684 42.213 255.274 42.185 254.863 41.959V41.959C254.229 41.609 253.868 41.069 253.781 40.34 253.693 39.61 253.844 38.893 254.232 38.188V38.188C254.507 37.689 254.838 37.347 255.223 37.161 255.612 36.97 256 36.981 256.388 37.195ZM290.831 44.572V44.572L289.611 45.727C288.879 44.91 288.215 44.252 287.619 43.751V43.751C286.249 42.6 284.767 42.06 283.175 42.131 281.591 42.202 280.166 42.664 278.898 43.516 277.629 44.359 276.419 45.466 275.267 46.837V46.837C274.732 47.473 274.294 48.073 273.953 48.635 273.617 49.202 273.351 49.811 273.155 50.461 272.968 51.11 272.984 51.758 273.202 52.405 273.425 53.047 273.864 53.644 274.521 54.197V54.197C275.394 54.93 276.648 55.694 278.282 56.49V56.49C278.832 56.68 279.227 56.876 279.468 57.079V57.079C279.946 57.48 279.765 58.279 278.927 59.475V59.475C276.711 58.558 274.858 57.475 273.37 56.224V56.224C271.209 54.408 270.192 52.647 270.32 50.942 270.448 49.237 271.513 47.194 273.514 44.812V44.812C274.683 43.421 275.797 42.282 276.858 41.395 277.923 40.513 279.074 39.82 280.311 39.318 281.547 38.816 282.818 38.705 284.122 38.987 285.427 39.269 286.733 39.959 288.042 41.059V41.059C289.516 42.297 290.445 43.468 290.831 44.572ZM294.658 65.111V65.111C295.497 64.498 296.494 63.907 297.647 63.338 298.802 62.76 300.076 62.236 301.468 61.766 302.861 61.297 304.192 61.141 305.463 61.301 306.738 61.465 307.719 62.018 308.407 62.96V62.96C309.879 64.974 310.154 67.248 309.232 69.782 308.305 72.319 306.732 74.399 304.512 76.021V76.021C303.571 76.71 302.563 77.297 301.489 77.782 300.412 78.262 299.267 78.622 298.054 78.86 296.851 79.1 295.665 79.045 294.496 78.695 293.322 78.35 292.31 77.681 291.461 76.691V76.691C290.306 74.587 290.043 72.5 290.672 70.429 291.3 68.367 292.628 66.595 294.658 65.111ZM306.912 64.34V64.34C306.297 63.668 305.177 63.54 303.553 63.954 301.924 64.373 300.466 64.94 299.179 65.656 297.887 66.376 296.792 67.065 295.893 67.722V67.722C294.718 68.58 293.898 69.736 293.432 71.189 292.968 72.633 293.064 73.804 293.721 74.703V74.703C294.195 75.352 294.876 75.756 295.764 75.913 296.645 76.074 297.57 76.033 298.539 75.79 299.502 75.552 300.417 75.236 301.284 74.843 302.157 74.446 302.886 74.034 303.47 73.607V73.607C305.186 72.353 306.4 70.872 307.112 69.164 307.823 67.456 307.757 65.848 306.912 64.34ZM321.478 99.389V99.389C320.151 99.994 318.568 100.669 316.728 101.415 314.888 102.162 313.031 102.908 311.155 103.653 309.27 104.395 307.994 104.905 307.325 105.184V105.184C306.975 104.707 306.714 104.239 306.542 103.781V103.781C306.405 103.417 306.34 103.051 306.346 102.684V102.684C307.268 102.26 308.33 101.808 309.533 101.329 310.741 100.848 311.81 100.433 312.739 100.085 313.675 99.735 314.647 99.349 315.657 98.928 316.66 98.509 317.508 98.116 318.201 97.749 318.898 97.374 319.517 96.973 320.06 96.548 320.608 96.121 320.986 95.668 321.194 95.189 321.401 94.711 321.422 94.212 321.257 93.694V93.694C321.066 93.186 320.802 92.816 320.465 92.584 320.125 92.346 319.598 92.153 318.884 92.006V92.006L304.447 97.413C304.122 97.12 303.864 96.719 303.674 96.21V96.21C303.528 95.821 303.424 95.362 303.363 94.834V94.834C304.92 94.329 307.949 93.249 312.447 91.592 316.952 89.934 320.316 88.784 322.54 88.145V88.145L322.796 89.918 320.973 90.729C322.389 91.03 323.306 91.739 323.724 92.856V92.856C324.343 94.507 324.138 96.177 323.109 97.865V97.865C324.829 98.023 325.984 98.89 326.575 100.466V100.466C326.812 101.1 326.944 101.673 326.972 102.186V102.186C327.211 105.117 324.32 107.711 318.298 109.966V109.966C317.419 110.295 316.235 110.707 314.744 111.201 313.252 111.688 312.251 112.027 311.742 112.218V112.218C311.064 112.472 310.518 112.716 310.105 112.949V112.949C309.293 111.814 308.838 111.115 308.739 110.851V110.851C308.647 110.606 308.609 110.427 308.624 110.314V110.314C308.9 110.096 309.462 109.829 310.31 109.511V109.511C310.843 109.311 311.956 108.937 313.648 108.39 315.338 107.835 316.657 107.381 317.605 107.026V107.026C322.659 105.133 324.839 103.181 324.144 101.172V101.172C323.947 100.723 323.655 100.374 323.268 100.126 322.89 99.881 322.293 99.635 321.478 99.389ZM67.573 179.813V179.813L68.99 179.323C69.818 181.027 70.307 182.091 70.456 182.516V182.516C71.123 182.336 72.121 182.046 73.45 181.646V181.646C75.202 181.118 77.717 180.318 80.993 179.247 84.275 178.168 86.445 177.459 87.505 177.118V177.118L86.771 174.125 88.405 173.413C88.626 174.214 88.988 175.453 89.493 177.129V177.129C90.009 178.843 90.384 180.123 90.618 180.97V180.97L89.181 181.497C88.946 181.204 88.721 180.761 88.507 180.167 88.3 179.571 88.16 179.2 88.088 179.054V179.054C87.566 179.274 86.205 179.719 84.005 180.389 81.807 181.065 79.372 181.805 76.702 182.609 74.031 183.413 72.137 184.005 71.019 184.384V184.384C71.054 184.709 71.165 185.323 71.353 186.226 71.541 187.129 71.647 187.692 71.673 187.915V187.915L70.134 188.316C69.977 187.726 69.708 186.799 69.327 185.534V185.534C69.126 184.866 68.823 183.883 68.418 182.583 68.019 181.282 67.737 180.359 67.573 179.813ZM88.311 194.026V194.026L87.06 194.201C87.086 192.061 86.896 190.483 86.491 189.468V189.468C86.128 188.559 85.736 187.976 85.315 187.718 84.895 187.46 84.239 187.509 83.349 187.864V187.864C82.633 188.15 82.141 188.646 81.875 189.352 81.608 190.058 81.485 190.836 81.507 191.686 81.527 192.53 81.53 193.388 81.517 194.259 81.504 195.131 81.299 195.946 80.901 196.704 80.506 197.468 79.863 198.028 78.973 198.383V198.383C77.765 198.866 76.529 198.843 75.264 198.316 74.002 197.795 73.078 196.828 72.493 195.416V195.416C72.077 194.376 71.906 193.315 71.979 192.232 72.054 191.155 72.316 190.22 72.765 189.427V189.427L73.943 189.91C73.939 190.171 73.923 190.564 73.894 191.088 73.861 191.621 73.851 191.993 73.863 192.205 73.869 192.419 73.91 192.728 73.984 193.131 74.056 193.528 74.175 193.935 74.342 194.353V194.353C74.695 195.237 75.184 195.883 75.809 196.29 76.427 196.7 77.098 196.761 77.82 196.472V196.472C78.287 196.286 78.636 195.995 78.868 195.599 79.091 195.199 79.22 194.744 79.254 194.232 79.285 193.714 79.293 193.155 79.277 192.555 79.257 191.964 79.261 191.359 79.289 190.742 79.319 190.13 79.412 189.541 79.568 188.973 79.724 188.406 80.033 187.878 80.495 187.39 80.955 186.896 81.574 186.494 82.352 186.183V186.183C83.486 185.73 84.558 185.659 85.57 185.97 86.582 186.28 87.311 186.993 87.756 188.107V188.107C87.928 188.537 88.054 189.053 88.136 189.656 88.224 190.256 88.277 190.74 88.294 191.109 88.311 191.477 88.318 192.027 88.314 192.758 88.312 193.495 88.311 193.918 88.311 194.026ZM77.206 201.532L95.09 193.806 95.411 195.212 77.859 204.272C77.209 204.372 76.771 204.183 76.544 203.704V203.704C76.389 203.377 76.373 202.999 76.496 202.57 76.619 202.141 76.856 201.795 77.206 201.532ZM90.547 201.837V201.837L91.601 200.535C92.323 200.735 93.021 201.11 93.695 201.661 94.372 202.218 94.906 202.84 95.296 203.528V203.528C96.99 206.521 95.253 209.481 90.084 212.408V212.408C89.372 212.811 88.305 213.362 86.882 214.06 85.456 214.767 84.396 215.317 83.702 215.71V215.71C83.071 215.875 82.639 215.753 82.408 215.344V215.344C82.23 215.029 82.225 214.647 82.394 214.197 82.566 213.753 82.845 213.421 83.23 213.203V213.203C83.358 213.131 83.454 213.088 83.516 213.076V213.076C81.833 212.58 80.64 211.711 79.936 210.469V210.469C79.404 209.529 79.28 208.521 79.564 207.443 79.85 206.357 80.48 205.538 81.455 204.986V204.986C83.1 204.054 84.951 203.854 87.008 204.384 89.065 204.914 90.554 205.993 91.476 207.621V207.621C91.516 207.691 91.55 207.765 91.578 207.841 91.611 207.914 91.648 208.006 91.686 208.115 91.725 208.224 91.759 208.305 91.789 208.357V208.357C93.781 207.044 94.35 205.635 93.498 204.13V204.13C92.996 203.243 92.012 202.479 90.547 201.837ZM85.375 212.093V212.093C86.637 211.424 87.587 210.91 88.223 210.55V210.55C88.753 210.249 89.487 209.81 90.424 209.234V209.234L90.306 209.024C89.574 207.773 88.456 206.893 86.949 206.382 85.439 205.866 84.031 205.977 82.724 206.717V206.717C82.152 207.041 81.798 207.469 81.66 208.002 81.516 208.538 81.585 209.053 81.866 209.549V209.549C82.309 210.331 83.478 211.179 85.375 212.093ZM100.107 218.547V218.547C99.235 219.286 98.183 220.131 96.952 221.082 95.715 222.037 94.469 222.996 93.212 223.958 91.946 224.918 91.089 225.575 90.641 225.928V225.928C90.282 225.642 89.988 225.342 89.758 225.029V225.029C89.576 224.78 89.448 224.52 89.375 224.25V224.25C89.977 223.734 90.684 223.167 91.494 222.548 92.304 221.93 93.026 221.389 93.659 220.926 94.292 220.462 94.942 219.965 95.609 219.435 96.28 218.911 96.841 218.434 97.291 218.004 97.732 217.573 98.113 217.141 98.434 216.706 98.756 216.271 98.946 215.849 99.004 215.441 99.057 215.037 98.965 214.655 98.727 214.297V214.297C98.474 213.951 98.197 213.726 97.896 213.622 97.592 213.513 97.153 213.481 96.58 213.527V213.527L86.827 220.668C86.515 220.515 86.234 220.267 85.984 219.927V219.927C85.79 219.662 85.613 219.334 85.453 218.945V218.945C86.525 218.242 88.588 216.786 91.64 214.576 94.686 212.37 96.981 210.789 98.525 209.834V209.834L99.09 211.115 97.891 212.117C99.025 212.043 99.868 212.382 100.418 213.134V213.134C101.238 214.254 101.437 215.558 101.015 217.047V217.047C102.348 216.802 103.405 217.213 104.185 218.278V218.278C104.498 218.706 104.718 219.114 104.845 219.503V219.503C105.648 221.666 104.015 224.236 99.947 227.215V227.215C99.358 227.647 98.549 228.206 97.522 228.891 96.499 229.582 95.818 230.052 95.477 230.302V230.302C95.017 230.639 94.656 230.94 94.394 231.207V231.207C93.541 230.519 93.047 230.082 92.913 229.899V229.899C92.794 229.736 92.727 229.611 92.712 229.522V229.522C92.875 229.303 93.244 228.983 93.817 228.563V228.563C94.179 228.298 94.941 227.777 96.102 227.002 97.263 226.227 98.162 225.606 98.8 225.138V225.138C102.214 222.639 103.444 220.704 102.49 219.333V219.333C102.248 219.037 101.958 218.833 101.62 218.724 101.28 218.623 100.776 218.564 100.107 218.547ZM108.78 223.761V223.761L109.478 225.023C108.339 226.244 106.47 228.083 103.872 230.54 101.274 232.997 99.672 234.524 99.065 235.123V235.123C98.468 235.4 97.994 235.34 97.644 234.943V234.943C97.404 234.672 97.284 234.313 97.283 233.866 97.282 233.42 97.413 233.022 97.677 232.672V232.672C98.327 232.152 100.01 230.776 102.727 228.546 105.435 226.314 107.452 224.719 108.78 223.761ZM113.158 220.469V220.469C113.522 220.881 113.646 221.381 113.529 221.967 113.411 222.563 113.124 223.063 112.667 223.467V223.467C112.335 223.76 111.995 223.917 111.647 223.939 111.299 223.96 111.005 223.835 110.766 223.563V223.563C110.388 223.136 110.264 222.647 110.393 222.094 110.528 221.537 110.831 221.05 111.303 220.633V220.633C111.64 220.335 111.975 220.168 112.31 220.132 112.645 220.096 112.928 220.208 113.158 220.469ZM118.694 234.478V234.478L117.673 235.308C117.143 234.622 116.66 234.066 116.223 233.64V233.64C115.22 232.661 114.095 232.153 112.848 232.116 111.605 232.084 110.464 232.361 109.423 232.947 108.377 233.538 107.365 234.335 106.387 235.338V235.338C105.932 235.804 105.556 236.247 105.258 236.668 104.959 237.088 104.716 237.549 104.528 238.049 104.339 238.549 104.312 239.057 104.447 239.572 104.581 240.087 104.888 240.579 105.368 241.047V241.047C106.011 241.675 106.948 242.346 108.18 243.061V243.061C108.599 243.246 108.898 243.425 109.076 243.598V243.598C109.421 243.935 109.234 244.549 108.515 245.44V245.44C106.831 244.592 105.444 243.637 104.355 242.574V242.574C102.767 241.024 102.074 239.584 102.276 238.254 102.473 236.929 103.424 235.393 105.129 233.647V233.647C106.126 232.625 107.067 231.8 107.951 231.173 108.834 230.546 109.774 230.072 110.771 229.752 111.767 229.432 112.768 229.42 113.772 229.716 114.776 230.012 115.757 230.628 116.717 231.565V231.565C117.797 232.618 118.456 233.589 118.694 234.478ZM117.692 252.717V252.717L130.098 234.506C133.816 237.063 136.062 239.969 136.834 243.224 137.608 246.488 136.773 249.932 134.329 253.555V253.555C133.545 254.717 132.523 255.572 131.263 256.122 130.009 256.674 128.711 256.919 127.371 256.856 126.029 256.784 124.699 256.53 123.383 256.095 122.073 255.664 120.876 255.083 119.792 254.352V254.352C119.119 253.898 118.419 253.353 117.692 252.717ZM120.633 252.457V252.457L121.067 252.749C122.029 253.398 123.031 253.908 124.074 254.28 125.122 254.656 126.181 254.873 127.25 254.931 128.314 254.985 129.343 254.766 130.339 254.273 131.334 253.78 132.187 253.008 132.895 251.958V251.958C133.848 250.546 134.392 248.822 134.527 246.787 134.663 244.751 134.432 242.877 133.833 241.163 133.234 239.448 132.421 238.245 131.392 237.551V237.551C131.17 237.401 130.942 237.284 130.708 237.199V237.199C130.026 238.21 126.668 243.296 120.633 252.457ZM144.811 265.376V265.376L144.486 266.711C143.536 266.598 142.188 266.322 140.442 265.883 138.69 265.44 137.434 265.026 136.674 264.642V264.642C135.89 264.246 135.338 263.644 135.018 262.836 134.701 262.022 134.6 261.137 134.715 260.181 134.837 259.228 135.028 258.322 135.29 257.462 135.552 256.603 135.875 255.793 136.259 255.033V255.033C138.555 250.492 141.756 249.259 145.86 251.335V251.335C146.841 251.831 147.547 252.583 147.977 253.589 148.405 254.586 148.365 255.585 147.86 256.584V256.584C147.585 257.128 147.192 257.534 146.681 257.802 146.17 258.069 145.64 258.218 145.091 258.249 144.536 258.276 143.877 258.221 143.113 258.082 142.355 257.947 141.697 257.799 141.14 257.637 140.587 257.47 139.926 257.26 139.16 257.008 138.399 256.758 137.871 256.592 137.574 256.51V256.51C137.326 257.046 137.122 257.525 136.961 257.947 136.806 258.372 136.678 258.848 136.576 259.375 136.478 259.911 136.467 260.387 136.543 260.801 136.619 261.215 136.808 261.622 137.109 262.022 137.407 262.428 137.828 262.769 138.372 263.044V263.044C139.025 263.374 139.854 263.718 140.859 264.077 141.865 264.435 142.765 264.736 143.558 264.979 144.358 265.226 144.775 265.358 144.811 265.376ZM138.535 254.877V254.877C141.357 255.418 143.756 255.696 145.732 255.711V255.711C145.909 255.049 145.958 254.529 145.879 254.151 145.797 253.763 145.537 253.459 145.1 253.239V253.239C143.994 252.679 142.798 252.555 141.513 252.867 140.231 253.173 139.239 253.843 138.535 254.877ZM160.706 258.421V258.421L160.096 259.588C159.338 259.168 158.675 258.848 158.105 258.629V258.629C156.797 258.127 155.563 258.106 154.402 258.565 153.248 259.027 152.309 259.733 151.585 260.683 150.859 261.639 150.245 262.771 149.742 264.079V264.079C149.509 264.687 149.339 265.242 149.231 265.747 149.124 266.251 149.082 266.771 149.107 267.304 149.132 267.838 149.308 268.315 149.635 268.735 149.962 269.155 150.439 269.486 151.065 269.726V269.726C151.903 270.048 153.03 270.294 154.444 270.463V270.463C154.902 270.467 155.247 270.513 155.479 270.602V270.602C155.93 270.775 156.001 271.413 155.692 272.516V272.516C153.811 272.403 152.159 272.075 150.739 271.529V271.529C148.667 270.733 147.461 269.685 147.12 268.384 146.777 267.088 147.043 265.302 147.918 263.023V263.023C148.43 261.69 148.968 260.561 149.531 259.635 150.095 258.71 150.771 257.903 151.56 257.215 152.348 256.526 153.262 256.12 154.301 255.994 155.341 255.869 156.486 256.047 157.738 256.528V256.528C159.146 257.068 160.135 257.7 160.706 258.421ZM169.475 273.403V273.403L169.417 274.775C168.463 274.851 167.088 274.844 165.289 274.755 163.484 274.664 162.172 274.505 161.351 274.277V274.277C160.505 274.041 159.846 273.559 159.374 272.829 158.903 272.093 158.631 271.245 158.557 270.285 158.489 269.327 158.499 268.401 158.587 267.507 158.676 266.613 158.834 265.756 159.062 264.935V264.935C160.424 260.032 163.321 258.196 167.753 259.428V259.428C168.812 259.722 169.651 260.321 170.27 261.223 170.885 262.118 171.042 263.104 170.742 264.183V264.183C170.579 264.771 170.273 265.246 169.824 265.609 169.376 265.971 168.885 266.221 168.353 266.358 167.814 266.494 167.157 266.569 166.38 266.583 165.611 266.598 164.937 266.582 164.359 266.532 163.783 266.477 163.094 266.4 162.293 266.303 161.499 266.207 160.948 266.148 160.641 266.126V266.126C160.503 266.7 160.396 267.209 160.321 267.655 160.252 268.102 160.22 268.594 160.224 269.131 160.232 269.676 160.315 270.144 160.47 270.535 160.626 270.926 160.891 271.289 161.264 271.622 161.636 271.962 162.116 272.214 162.704 272.377V272.377C163.408 272.573 164.288 272.748 165.345 272.902 166.401 273.056 167.342 273.175 168.168 273.259 169 273.344 169.436 273.392 169.475 273.402ZM161.264 264.336V264.336C164.137 264.314 166.544 264.116 168.484 263.744V263.744C168.528 263.06 168.474 262.54 168.323 262.185 168.166 261.822 167.852 261.574 167.381 261.443V261.443C166.185 261.111 164.989 261.224 163.79 261.782 162.593 262.333 161.751 263.184 161.264 264.336ZM175.119 264.973V264.973L173.189 276.907C172.858 277.013 172.484 277.03 172.068 276.959V276.959C171.744 276.903 171.389 276.791 171.003 276.623V276.623C171.286 275.372 171.757 272.892 172.416 269.182 173.073 265.478 173.624 262.746 174.07 260.986V260.986L175.367 261.515 175.176 263.217C176.427 262.276 177.746 261.924 179.133 262.163V262.163C179.834 262.284 180.387 262.43 180.793 262.601 181.191 262.779 181.554 263.096 181.884 263.555 182.207 264.011 182.412 264.577 182.5 265.252 182.588 265.927 182.612 266.877 182.571 268.102 182.525 269.318 182.401 270.732 182.199 272.344 181.991 273.948 181.689 275.964 181.291 278.392V278.392C181.166 278.411 180.931 278.391 180.587 278.332V278.332C179.867 278.208 179.324 278.023 178.958 277.777V277.777C178.928 277.438 178.977 276.899 179.104 276.159V276.159C179.17 275.775 179.31 275.061 179.523 274.016 179.737 272.971 179.894 272.158 179.994 271.577V271.577C180.16 270.612 180.268 269.763 180.32 269.031 180.372 268.291 180.362 267.555 180.291 266.822 180.227 266.089 180.029 265.498 179.699 265.046 179.374 264.602 178.92 264.331 178.339 264.231V264.231C177.678 264.117 177.154 264.078 176.767 264.113 176.38 264.149 176.099 264.223 175.923 264.336 175.747 264.448 175.479 264.661 175.119 264.973ZM193.887 264.482V264.482L194.129 265.879C193.578 265.883 192.728 265.936 191.58 266.036 190.431 266.13 189.572 266.178 189 266.181V266.181C189.061 266.904 189.064 267.845 189.009 269.004 188.954 270.163 188.913 271.164 188.885 272.009 188.864 272.854 188.903 273.7 189.003 274.546 189.095 275.399 189.368 276.065 189.821 276.544 190.267 277.023 190.895 277.289 191.704 277.341V277.341C192.313 277.381 193.085 277.286 194.02 277.058V277.058C194.359 277.839 194.608 278.406 194.767 278.759V278.759C193.124 279.224 191.48 279.403 189.834 279.296V279.296C189.225 279.257 188.712 279.042 188.294 278.653 187.869 278.256 187.551 277.775 187.339 277.21 187.133 276.646 186.981 275.937 186.882 275.084 186.783 274.231 186.737 273.429 186.745 272.677 186.754 271.925 186.79 271.061 186.853 270.084V270.084C186.887 269.555 186.941 268.826 187.015 267.897 187.082 266.961 187.127 266.319 187.149 265.971V265.971C186.947 265.978 186.471 265.964 185.721 265.929 184.965 265.887 184.526 265.862 184.406 265.854V265.854C184.353 264.486 184.328 263.783 184.331 263.743V263.743C184.469 263.792 184.702 263.827 185.029 263.848V263.848C185.21 263.86 185.505 263.866 185.915 263.865 186.319 263.858 186.624 263.861 186.832 263.874V263.874C186.912 263.88 187.019 263.893 187.152 263.915 187.278 263.93 187.365 263.939 187.412 263.942V263.942C187.637 261.713 187.845 259.902 188.036 258.51V258.51L189.379 258.93C189.367 259.419 189.35 259.946 189.327 260.509 189.298 261.064 189.268 261.684 189.237 262.367 189.2 263.043 189.17 263.565 189.146 263.933V263.933C189.672 264.008 190.462 264.099 191.516 264.208 192.571 264.316 193.361 264.408 193.887 264.482ZM206.478 267.506V267.506L205.129 267.442C204.684 266.311 203.952 265.756 202.933 265.776V265.776C202.484 265.785 202.013 265.895 201.521 266.106 201.022 266.318 200.614 266.534 200.297 266.755 199.973 266.976 199.55 267.296 199.029 267.715V267.715C199.034 267.997 199.049 268.922 199.074 270.491 199.092 272.06 199.137 273.799 199.209 275.709 199.274 277.619 199.331 278.643 199.381 278.783V278.783C199.205 279.397 198.853 279.709 198.323 279.72V279.72C197.961 279.727 197.61 279.586 197.269 279.298 196.928 279.01 196.709 278.656 196.614 278.235V278.235C196.872 271.698 197.122 266.758 197.363 263.413V263.413L198.737 263.688 198.868 265.737C200.273 264.529 201.481 263.914 202.493 263.894V263.894C203.612 263.872 204.559 264.104 205.333 264.592 206.108 265.086 206.505 265.822 206.524 266.801V266.801C206.53 267.109 206.515 267.344 206.478 267.506ZM208.354 265.66V265.66L207.57 264.179C208.037 263.594 208.657 263.099 209.428 262.696 210.205 262.291 210.987 262.045 211.773 261.956V261.956C215.191 261.572 217.232 264.332 217.895 270.235V270.235C217.986 271.048 218.074 272.246 218.157 273.829 218.248 275.418 218.338 276.608 218.427 277.401V277.401C218.331 278.046 218.049 278.395 217.583 278.447V278.447C217.223 278.488 216.869 278.342 216.522 278.01 216.181 277.677 215.986 277.291 215.936 276.851V276.851C215.92 276.705 215.918 276.6 215.931 276.538V276.538C214.815 277.891 213.547 278.648 212.128 278.807V278.807C211.055 278.928 210.079 278.646 209.199 277.962 208.312 277.272 207.806 276.371 207.681 275.259V275.259C207.47 273.38 208.012 271.598 209.307 269.915 210.603 268.231 212.18 267.285 214.039 267.076V267.076C214.118 267.067 214.199 267.064 214.281 267.069 214.361 267.066 214.459 267.069 214.575 267.076 214.69 267.083 214.778 267.084 214.838 267.077V267.077C214.413 264.73 213.34 263.653 211.621 263.846V263.846C210.609 263.959 209.519 264.564 208.354 265.66ZM215.757 274.443V274.443C215.637 273.019 215.537 271.944 215.455 271.218V271.218C215.387 270.611 215.272 269.764 215.109 268.676V268.676L214.869 268.703C213.432 268.885 212.183 269.568 211.122 270.753 210.054 271.939 209.604 273.278 209.772 274.771V274.771C209.845 275.424 210.1 275.918 210.536 276.254 210.972 276.596 211.474 276.735 212.04 276.672V276.672C212.933 276.571 214.172 275.828 215.757 274.443ZM221.451 275.787L218.637 256.509 220.078 256.565 224.266 275.869C224.194 276.522 223.898 276.897 223.376 276.991V276.991C223.02 277.056 222.651 276.973 222.268 276.743 221.886 276.512 221.613 276.194 221.451 275.787ZM224.402 260.67V260.67L225.844 260.664C226.367 262.25 227.081 264.773 227.986 268.233 228.891 271.692 229.46 273.831 229.693 274.652V274.652C229.649 275.308 229.368 275.694 228.852 275.811V275.811C228.499 275.891 228.126 275.823 227.734 275.61 227.342 275.396 227.056 275.089 226.877 274.69V274.69C226.733 273.87 226.336 271.732 225.687 268.277 225.032 264.83 224.604 262.295 224.402 260.67ZM223.621 255.248V255.248C224.157 255.127 224.654 255.259 225.112 255.643 225.578 256.033 225.878 256.525 226.013 257.12V257.12C226.11 257.552 226.085 257.926 225.936 258.241 225.787 258.556 225.536 258.754 225.183 258.834V258.834C224.627 258.959 224.138 258.833 223.716 258.454 223.292 258.068 223.011 257.568 222.872 256.953V256.953C222.773 256.515 222.788 256.141 222.917 255.83 223.046 255.519 223.281 255.325 223.621 255.248ZM228.441 260.84V260.84L227.48 259.224C227.736 259.143 228.711 258.812 230.404 258.23 232.096 257.642 233.428 257.195 234.4 256.89V256.89C236.299 256.292 237.927 255.879 239.281 255.65V255.65C239.292 255.752 239.325 255.889 239.379 256.062V256.062C239.397 256.12 239.445 256.249 239.522 256.449 239.593 256.652 239.658 256.849 239.719 257.041V257.041C239.358 258.799 238.51 261.333 237.174 264.641 235.833 267.951 234.945 270.371 234.512 271.898V271.898C235.151 271.697 236.472 271.293 238.474 270.684 240.481 270.074 242.154 269.559 243.491 269.139V269.139C243.564 269.305 243.652 269.506 243.754 269.741 243.849 269.978 243.934 270.18 244.007 270.347 244.081 270.513 244.143 270.676 244.193 270.836V270.836C244.259 271.047 244.304 271.223 244.327 271.363V271.363C243.145 271.693 239.09 272.947 232.163 275.125V275.125C231.997 274.797 231.88 274.525 231.811 274.308V274.308C231.751 274.116 231.667 273.749 231.56 273.206V273.206C231.671 272.531 232.541 270.125 234.171 265.986 235.8 261.847 236.629 259.239 236.655 258.162V258.162C235.985 258.331 235.425 258.486 234.978 258.627V258.627C234.376 258.816 233.345 259.168 231.884 259.684 230.42 260.193 229.273 260.579 228.441 260.84ZM256.295 262.767V262.767L257.109 263.873C256.412 264.529 255.335 265.385 253.876 266.441 252.412 267.499 251.288 268.196 250.506 268.532V268.532C249.698 268.878 248.882 268.914 248.057 268.641 247.23 268.361 246.487 267.87 245.828 267.167 245.175 266.462 244.604 265.733 244.113 264.981 243.623 264.228 243.21 263.461 242.874 262.678V262.678C240.869 258.001 241.98 254.756 246.207 252.944V252.944C247.217 252.51 248.247 252.452 249.294 252.769 250.333 253.082 251.073 253.753 251.514 254.782V254.782C251.755 255.343 251.814 255.905 251.69 256.468 251.567 257.032 251.341 257.534 251.012 257.974 250.677 258.417 250.211 258.887 249.614 259.383 249.023 259.877 248.487 260.286 248.006 260.609 247.521 260.926 246.937 261.297 246.251 261.723 245.571 262.145 245.105 262.444 244.851 262.618V262.618C245.102 263.153 245.338 263.617 245.558 264.011 245.784 264.403 246.067 264.807 246.406 265.223 246.754 265.643 247.111 265.957 247.477 266.165 247.843 266.372 248.276 266.489 248.777 266.516 249.279 266.548 249.811 266.444 250.372 266.204V266.204C251.043 265.916 251.84 265.501 252.76 264.961 253.681 264.42 254.49 263.924 255.186 263.472 255.888 263.018 256.258 262.782 256.295 262.767ZM244.217 260.833V260.833C246.444 259.017 248.198 257.357 249.478 255.852V255.852C249.085 255.291 248.718 254.92 248.377 254.738 248.027 254.552 247.628 254.556 247.178 254.749V254.749C246.038 255.237 245.175 256.074 244.589 257.259 244 258.438 243.876 259.63 244.217 260.833ZM258.108 238.418L269.525 259.664 267.897 260.193C267.697 259.836 267.538 259.572 267.419 259.4V259.4C266.817 260.535 265.992 261.395 264.944 261.981V261.981C263.328 262.883 261.685 262.891 260.015 262.003 258.339 261.12 257.01 259.8 256.029 258.044V258.044C255.522 257.136 255.113 256.244 254.799 255.367 254.489 254.496 254.263 253.547 254.12 252.521 253.977 251.495 254.118 250.537 254.542 249.647 254.967 248.757 255.676 248.035 256.672 247.479V247.479C257.649 246.933 258.696 246.663 259.813 246.669V246.669C258.907 244.702 257.917 242.759 256.845 240.839V240.839C256.358 239.967 255.993 239.334 255.75 238.94V238.94C256.687 238.624 257.473 238.45 258.108 238.418ZM266.228 257.762V257.762L261.357 249.228C260.892 248.904 260.363 248.739 259.768 248.733 259.168 248.73 258.61 248.873 258.095 249.161V249.161C257.404 249.546 256.94 250.097 256.703 250.814 256.459 251.533 256.441 252.319 256.648 253.171 256.855 254.023 257.099 254.789 257.379 255.47 257.654 256.153 257.99 256.852 258.389 257.566V257.566C260.076 260.587 261.932 261.532 263.958 260.4V260.4C264.631 260.024 265.196 259.586 265.653 259.085 266.105 258.587 266.296 258.146 266.228 257.762ZM281.806 249.455L282.094 249.804 279.834 251.441C278.565 249.584 276.272 246.622 272.954 242.553 269.636 238.485 267.401 235.583 266.25 233.846V233.846C266.82 233.452 268.267 232.319 270.59 230.447 272.913 228.574 274.471 227.401 275.263 226.928V226.928L276.405 227.771C275.8 228.481 274.51 229.798 272.534 231.722 270.568 233.647 269.535 234.664 269.434 234.774V234.774C269.749 235.122 270.394 235.828 271.371 236.891 272.351 237.959 273.147 238.846 273.757 239.55V239.55C274.34 239.172 275.385 238.458 276.893 237.409 278.401 236.36 279.356 235.695 279.759 235.414V235.414L280.89 236.306C277.829 239.337 276.024 241.094 275.474 241.576V241.576L275.808 241.978C276.299 242.572 277.301 243.823 278.812 245.732 280.325 247.631 281.322 248.872 281.806 249.455ZM280.546 230.213V230.213L281.778 229.462C283.045 230.55 284.96 232.341 287.522 234.835 290.085 237.329 291.678 238.867 292.301 239.449V239.449C292.602 240.033 292.562 240.509 292.18 240.876V240.876C291.919 241.127 291.565 241.262 291.119 241.281 290.673 241.301 290.27 241.186 289.91 240.937V240.937C289.363 240.309 287.919 238.684 285.577 236.062 283.235 233.449 281.558 231.499 280.546 230.213ZM277.076 225.974V225.974C277.472 225.593 277.966 225.449 278.557 225.542 279.157 225.635 279.669 225.901 280.091 226.341V226.341C280.398 226.66 280.569 226.993 280.604 227.34 280.64 227.687 280.527 227.986 280.266 228.237V228.237C279.855 228.631 279.371 228.776 278.813 228.67 278.251 228.559 277.752 228.276 277.316 227.821V227.821C277.004 227.497 276.824 227.169 276.774 226.836 276.724 226.503 276.824 226.216 277.076 225.974ZM287.54 227.923V227.923L296.607 235.919C296.521 236.256 296.336 236.581 296.054 236.895V236.895C295.834 237.139 295.55 237.38 295.202 237.617V237.617C294.295 236.71 292.447 234.99 289.66 232.454 286.877 229.924 284.86 228 283.608 226.685V226.685L284.747 225.87 286.086 226.939C285.956 225.379 286.362 224.076 287.304 223.029V223.029C287.779 222.501 288.197 222.111 288.559 221.859 288.922 221.617 289.384 221.478 289.947 221.444 290.506 221.415 291.094 221.543 291.712 221.828 292.33 222.113 293.146 222.6 294.161 223.287 295.165 223.974 296.296 224.833 297.551 225.864 298.797 226.895 300.341 228.226 302.184 229.856V229.856C302.133 229.973 301.991 230.161 301.758 230.42V230.42C301.269 230.963 300.823 231.324 300.419 231.502V231.502C300.117 231.347 299.686 231.018 299.128 230.516V230.516C298.839 230.256 298.31 229.757 297.539 229.019 296.769 228.281 296.165 227.715 295.726 227.32V227.32C294.999 226.666 294.339 226.121 293.746 225.687 293.149 225.249 292.521 224.864 291.862 224.533 291.208 224.197 290.602 224.049 290.044 224.088 289.495 224.126 289.024 224.365 288.629 224.804V224.804C288.181 225.302 287.868 225.724 287.692 226.071 287.516 226.417 287.428 226.695 287.43 226.903 287.431 227.112 287.468 227.452 287.54 227.923ZM294.189 218.565V218.565L292.568 218.143C292.452 217.403 292.505 216.612 292.728 215.771 292.955 214.924 293.301 214.181 293.767 213.542V213.542C295.793 210.762 299.206 211.121 304.007 214.619V214.619C304.668 215.1 305.61 215.845 306.834 216.852 308.067 217.859 309.006 218.596 309.651 219.066V219.066C310.061 219.573 310.129 220.016 309.852 220.395V220.395C309.639 220.688 309.293 220.85 308.813 220.882 308.337 220.909 307.921 220.792 307.563 220.532V220.532C307.444 220.445 307.366 220.375 307.329 220.324V220.324C307.573 222.061 307.274 223.507 306.433 224.661V224.661C305.798 225.533 304.931 226.063 303.832 226.25 302.725 226.438 301.718 226.203 300.813 225.543V225.543C299.285 224.43 298.338 222.827 297.971 220.735 297.604 218.643 297.971 216.841 299.072 215.329V215.329C299.12 215.264 299.173 215.203 299.231 215.145 299.284 215.084 299.352 215.014 299.435 214.933 299.518 214.853 299.578 214.789 299.613 214.74V214.74C297.595 213.468 296.076 213.532 295.058 214.93V214.93C294.458 215.753 294.168 216.965 294.189 218.565ZM305.665 219.037V219.037C304.535 218.164 303.674 217.512 303.084 217.081V217.081C302.591 216.722 301.888 216.235 300.975 215.62V215.62L300.833 215.815C299.997 216.998 299.657 218.38 299.815 219.963 299.968 221.551 300.652 222.788 301.866 223.672V223.672C302.397 224.059 302.933 224.205 303.475 224.11 304.022 224.02 304.464 223.744 304.799 223.283V223.283C305.328 222.557 305.617 221.142 305.665 219.037ZM302.374 208.312V208.312L312.855 214.337C312.837 214.684 312.721 215.04 312.507 215.404V215.404C312.341 215.687 312.11 215.98 311.816 216.281V216.281C310.747 215.574 308.593 214.257 305.355 212.329 302.124 210.405 299.763 208.923 298.274 207.884V207.884L299.228 206.858 300.752 207.638C300.314 206.135 300.451 204.777 301.165 203.564V203.564C301.526 202.951 301.858 202.485 302.162 202.167 302.469 201.857 302.895 201.629 303.439 201.483 303.981 201.342 304.583 201.35 305.246 201.507 305.908 201.663 306.805 201.977 307.936 202.447 309.058 202.921 310.336 203.537 311.772 204.296 313.199 205.057 314.978 206.053 317.109 207.283V207.283C317.083 207.408 316.981 207.62 316.804 207.921V207.921C316.434 208.551 316.068 208.993 315.708 209.248V209.248C315.381 209.156 314.894 208.92 314.246 208.54V208.54C313.911 208.343 313.293 207.959 312.391 207.39 311.489 206.82 310.784 206.386 310.275 206.087V206.087C309.432 205.591 308.676 205.189 308.009 204.882 307.336 204.572 306.644 204.32 305.932 204.128 305.225 203.929 304.601 203.905 304.062 204.054 303.532 204.201 303.118 204.529 302.818 205.038V205.038C302.479 205.616 302.257 206.092 302.153 206.467 302.049 206.841 302.019 207.131 302.062 207.335 302.105 207.539 302.21 207.865 302.374 208.312ZM309.067 188.652V188.652L310.193 189.333C309.727 190.063 309.366 190.706 309.113 191.261V191.261C308.53 192.535 308.432 193.765 308.818 194.952 309.207 196.133 309.853 197.114 310.756 197.896 311.665 198.68 312.757 199.364 314.031 199.947V199.947C314.623 200.217 315.167 200.422 315.664 200.561 316.161 200.699 316.676 200.773 317.21 200.781 317.745 200.79 318.232 200.644 318.671 200.344 319.111 200.043 319.47 199.588 319.749 198.979V198.979C320.123 198.162 320.438 197.053 320.696 195.652V195.652C320.728 195.195 320.796 194.853 320.899 194.628V194.628C321.1 194.189 321.74 194.157 322.822 194.534V194.534C322.593 196.405 322.161 198.032 321.528 199.417V199.417C320.605 201.435 319.484 202.573 318.164 202.832 316.85 203.094 315.083 202.717 312.864 201.702V201.702C311.565 201.108 310.471 200.501 309.583 199.88 308.694 199.26 307.931 198.535 307.293 197.705 306.655 196.875 306.306 195.938 306.246 194.893 306.186 193.848 306.434 192.716 306.992 191.496V191.496C307.62 190.124 308.311 189.176 309.067 188.652ZM324.567 180.835V180.835L325.933 180.978C325.95 181.935 325.857 183.308 325.656 185.097 325.452 186.893 325.211 188.193 324.932 188.997V188.997C324.645 189.827 324.122 190.455 323.365 190.881 322.6 191.304 321.737 191.523 320.774 191.537 319.814 191.545 318.89 191.477 318.003 191.333 317.117 191.189 316.271 190.977 315.466 190.699V190.699C310.658 189.033 309.007 186.027 310.512 181.681V181.681C310.872 180.642 311.522 179.842 312.462 179.28 313.393 178.723 314.387 178.628 315.445 178.994V178.994C316.022 179.194 316.477 179.529 316.811 179.999 317.144 180.47 317.363 180.975 317.467 181.515 317.569 182.061 317.602 182.722 317.568 183.497 317.535 184.267 317.476 184.938 317.391 185.512 317.3 186.083 317.18 186.765 317.033 187.559 316.888 188.346 316.795 188.892 316.753 189.197V189.197C317.317 189.371 317.819 189.509 318.259 189.612 318.701 189.708 319.19 189.771 319.726 189.801 320.271 189.827 320.743 189.774 321.143 189.643 321.543 189.512 321.922 189.27 322.278 188.918 322.64 188.569 322.921 188.105 323.121 187.529V187.529C323.36 186.838 323.59 185.971 323.81 184.926 324.03 183.881 324.207 182.949 324.342 182.13 324.479 181.305 324.554 180.873 324.567 180.835ZM315.006 188.464V188.464C315.163 185.595 315.116 183.18 314.866 181.22V181.22C314.186 181.134 313.664 181.155 313.3 181.284 312.927 181.418 312.661 181.716 312.501 182.178V182.178C312.095 183.35 312.132 184.552 312.614 185.783 313.089 187.012 313.887 187.906 315.006 188.464ZM59.531 143.799C59.531 137.372 64.741 132.162 71.167 132.162 77.594 132.162 82.804 137.372 82.804 143.799 82.804 150.226 77.594 155.436 71.167 155.436 64.741 155.436 59.531 150.226 59.531 143.799ZM312.716 143.799C312.716 137.372 317.926 132.162 324.353 132.162 330.779 132.162 335.989 137.372 335.989 143.799 335.989 150.226 330.779 155.436 324.353 155.436 317.926 155.436 312.716 150.226 312.716 143.799Z" fill="#729343" data-fill-palette-color="primary"></path></svg></g></svg></g></svg></g></svg></g><defs></defs></svg><rect width="395.52" height="279.72" fill="none" stroke="none" visibility="hidden"></rect></g></svg></g></svg>